<svg xmlns="http://www.w3.org/2000/svg" viewBox="0 0 64 64" fill="none">
  <!-- Background circle -->
  <circle cx="32" cy="32" r="30" fill="#0f172a"/>
  <circle cx="32" cy="32" r="30" stroke="url(#ring)" stroke-width="1.5" opacity="0.6"/>

  <!-- Warp threads (vertical) -->
  <line x1="22" y1="14" x2="22" y2="50" stroke="#6366f1" stroke-width="2" stroke-linecap="round" opacity="0.7"/>
  <line x1="32" y1="14" x2="32" y2="50" stroke="#818cf8" stroke-width="2" stroke-linecap="round" opacity="0.7"/>
  <line x1="42" y1="14" x2="42" y2="50" stroke="#6366f1" stroke-width="2" stroke-linecap="round" opacity="0.7"/>

  <!-- Weft threads (horizontal weave) — interleaving over/under -->
  <path d="M14 24 Q22 20, 22 24 Q22 28, 32 24 Q42 20, 42 24 Q42 28, 50 24" stroke="#38bdf8" stroke-width="2.5" stroke-linecap="round" fill="none"/>
  <path d="M14 32 Q22 36, 22 32 Q22 28, 32 32 Q42 36, 42 32 Q42 28, 50 32" stroke="#2dd4bf" stroke-width="2.5" stroke-linecap="round" fill="none"/>
  <path d="M14 40 Q22 36, 22 40 Q22 44, 32 40 Q42 36, 42 40 Q42 44, 50 40" stroke="#38bdf8" stroke-width="2.5" stroke-linecap="round" fill="none"/>

  <!-- Code bracket accents < > -->
  <path d="M11 28 L7 32 L11 36" stroke="#c084fc" stroke-width="2" stroke-linecap="round" stroke-linejoin="round" fill="none"/>
  <path d="M53 28 L57 32 L53 36" stroke="#c084fc" stroke-width="2" stroke-linecap="round" stroke-linejoin="round" fill="none"/>

  <!-- Node dots at intersections -->
  <circle cx="22" cy="24" r="2.5" fill="#38bdf8"/>
  <circle cx="32" cy="24" r="2.5" fill="#818cf8"/>
  <circle cx="42" cy="24" r="2.5" fill="#38bdf8"/>
  <circle cx="22" cy="32" r="2.5" fill="#2dd4bf"/>
  <circle cx="32" cy="32" r="3" fill="#f0abfc"/>
  <circle cx="42" cy="32" r="2.5" fill="#2dd4bf"/>
  <circle cx="22" cy="40" r="2.5" fill="#38bdf8"/>
  <circle cx="32" cy="40" r="2.5" fill="#818cf8"/>
  <circle cx="42" cy="40" r="2.5" fill="#38bdf8"/>

  <defs>
    <linearGradient id="ring" x1="0" y1="0" x2="64" y2="64">
      <stop offset="0%" stop-color="#6366f1"/>
      <stop offset="100%" stop-color="#38bdf8"/>
    </linearGradient>
  </defs>
</svg>
